<svg width="51" height="75" viewBox="0 0 51 75" fill="none" xmlns="http://www.w3.org/2000/svg">
<path d="M13.5983 45L31.9135 8.08594V7.77832H10.5781V0H41.5781V7.88819L23.2413 45H13.5983Z" fill="#1D3D94"/>
<path d="M6.06676 70.1864C5.19673 70.1864 4.40874 69.9627 3.70277 69.5153C3.00178 69.0629 2.44496 68.3991 2.03232 67.5241C1.62464 66.6442 1.42081 65.5653 1.42081 64.2876C1.42081 62.9751 1.6321 61.8839 2.05469 61.0138C2.47727 60.1388 3.03906 59.4851 3.74006 59.0526C4.44602 58.6151 5.21911 58.3963 6.0593 58.3963C6.70064 58.3963 7.23509 58.5057 7.66264 58.7244C8.09517 58.9382 8.44318 59.2067 8.70668 59.5298C8.97514 59.848 9.17898 60.1612 9.31818 60.4695H9.41513V54.7273H12.5845V70H9.45242V68.1655H9.31818C9.16903 68.4837 8.95774 68.7994 8.6843 69.1126C8.41584 69.4208 8.06534 69.6768 7.63281 69.8807C7.20526 70.0845 6.68324 70.1864 6.06676 70.1864ZM7.07351 67.6584C7.58558 67.6584 8.01811 67.5192 8.37109 67.2408C8.72905 66.9574 9.00249 66.5621 9.19141 66.055C9.3853 65.5479 9.48224 64.9538 9.48224 64.2727C9.48224 63.5916 9.38778 63 9.19886 62.4979C9.00994 61.9957 8.73651 61.608 8.37855 61.3345C8.0206 61.0611 7.58558 60.9244 7.07351 60.9244C6.55149 60.9244 6.11151 61.0661 5.75355 61.3494C5.3956 61.6328 5.12465 62.0256 4.9407 62.5277C4.75675 63.0298 4.66477 63.6115 4.66477 64.2727C4.66477 64.9389 4.75675 65.5281 4.9407 66.0401C5.12962 66.5472 5.40057 66.945 5.75355 67.2333C6.11151 67.5167 6.55149 67.6584 7.07351 67.6584ZM18.4628 70.2163C17.732 70.2163 17.0807 70.0895 16.509 69.8359C15.9372 69.5774 15.4848 69.1971 15.1517 68.695C14.8236 68.1879 14.6595 67.5565 14.6595 66.8008C14.6595 66.1644 14.7764 65.63 15.01 65.1974C15.2437 64.7649 15.5619 64.4169 15.9646 64.1534C16.3673 63.8899 16.8247 63.6911 17.3367 63.5568C17.8538 63.4226 18.3957 63.3281 18.9624 63.2734C19.6286 63.2038 20.1656 63.1392 20.5732 63.0795C20.9809 63.0149 21.2767 62.9205 21.4607 62.7962C21.6446 62.6719 21.7366 62.4879 21.7366 62.2443V62.1996C21.7366 61.7273 21.5874 61.3619 21.2892 61.1033C20.9958 60.8448 20.5782 60.7156 20.0363 60.7156C19.4646 60.7156 19.0097 60.8423 18.6716 61.0959C18.3335 61.3445 18.1098 61.6577 18.0004 62.0355L15.0622 61.7969C15.2114 61.1009 15.5047 60.4993 15.9422 59.9922C16.3797 59.4801 16.944 59.0874 17.635 58.8139C18.3311 58.5355 19.1365 58.3963 20.0512 58.3963C20.6876 58.3963 21.2966 58.4709 21.8783 58.62C22.4649 58.7692 22.9845 59.0004 23.4369 59.3136C23.8943 59.6268 24.2547 60.0295 24.5182 60.5217C24.7817 61.0089 24.9134 61.593 24.9134 62.2741V70H21.9007V68.4116H21.8112C21.6272 68.7695 21.3811 69.0852 21.0729 69.3587C20.7646 69.6271 20.3943 69.8384 19.9617 69.9925C19.5292 70.1417 19.0296 70.2163 18.4628 70.2163ZM19.3726 68.0238C19.8399 68.0238 20.2526 67.9318 20.6105 67.7479C20.9685 67.5589 21.2494 67.3054 21.4532 66.9872C21.657 66.669 21.759 66.3086 21.759 65.9059V64.6903C21.6595 64.755 21.5228 64.8146 21.3488 64.8693C21.1798 64.919 20.9884 64.9663 20.7746 65.011C20.5608 65.0508 20.347 65.0881 20.1333 65.1229C19.9195 65.1527 19.7256 65.18 19.5516 65.2049C19.1787 65.2596 18.8531 65.3466 18.5747 65.4659C18.2963 65.5852 18.08 65.7468 17.9259 65.9506C17.7718 66.1495 17.6947 66.3981 17.6947 66.6964C17.6947 67.1289 17.8513 67.4595 18.1645 67.6882C18.4827 67.9119 18.8854 68.0238 19.3726 68.0238ZM28.9292 74.2955C28.5265 74.2955 28.1487 74.2631 27.7957 74.1985C27.4477 74.1388 27.1594 74.0618 26.9307 73.9673L27.6466 71.5959C28.0194 71.7102 28.355 71.7724 28.6533 71.7823C28.9566 71.7923 29.2176 71.7227 29.4363 71.5735C29.6601 71.4244 29.8415 71.1708 29.9807 70.8129L30.1672 70.3281L26.0581 58.5455H29.3991L31.7705 66.9574H31.8898L34.2836 58.5455H37.6469L33.1949 71.2379C32.9811 71.8544 32.6903 72.3913 32.3224 72.8487C31.9594 73.3111 31.4996 73.6665 30.9427 73.9151C30.3859 74.1687 29.7148 74.2955 28.9292 74.2955ZM48.8032 61.8118L45.8948 61.9908C45.8451 61.7422 45.7382 61.5185 45.5741 61.3196C45.4101 61.1158 45.1938 60.9542 44.9253 60.8349C44.6618 60.7106 44.3461 60.6484 43.9782 60.6484C43.4861 60.6484 43.0709 60.7528 42.7329 60.9616C42.3948 61.1655 42.2258 61.4389 42.2258 61.782C42.2258 62.0554 42.3351 62.2866 42.5539 62.4755C42.7726 62.6644 43.148 62.8161 43.68 62.9304L45.7531 63.348C46.8667 63.5767 47.697 63.9446 48.2439 64.4517C48.7907 64.9588 49.0642 65.625 49.0642 66.4503C49.0642 67.201 48.843 67.8597 48.4005 68.4265C47.963 68.9933 47.3614 69.4357 46.5958 69.7539C45.8351 70.0671 44.9577 70.2237 43.9633 70.2237C42.447 70.2237 41.2389 69.908 40.339 69.2766C39.4442 68.6403 38.9197 67.7752 38.7655 66.6815L41.8902 66.5174C41.9846 66.9798 42.2133 67.3327 42.5763 67.5763C42.9392 67.815 43.404 67.9343 43.9708 67.9343C44.5276 67.9343 44.9751 67.8274 45.3131 67.6136C45.6562 67.3949 45.8302 67.114 45.8351 66.771C45.8302 66.4826 45.7084 66.2464 45.4697 66.0625C45.2311 65.8736 44.8632 65.7294 44.366 65.63L42.3824 65.2347C41.2638 65.011 40.431 64.6232 39.8841 64.0714C39.3422 63.5195 39.0713 62.8161 39.0713 61.9609C39.0713 61.2251 39.2702 60.5913 39.6679 60.0593C40.0706 59.5273 40.6349 59.1172 41.3607 58.8288C42.0915 58.5405 42.9466 58.3963 43.926 58.3963C45.3728 58.3963 46.5113 58.7021 47.3415 59.3136C48.1768 59.9251 48.664 60.7578 48.8032 61.8118Z" fill="#1D3D94"/>
</svg>
