<svg width="57" height="85" viewBox="0 0 57 85" fill="none" xmlns="http://www.w3.org/2000/svg">
<path d="M5.7233 38.4788L21.2521 7.18073V6.91991H3.1626V0.324951H29.4464V7.01306L13.8993 38.4788H5.7233Z" fill="#1D3D94"/>
<path d="M23.9642 38.6623C23.3445 38.6623 22.7923 38.5549 22.3076 38.3399C21.8228 38.1207 21.4392 37.7982 21.1568 37.3725C20.8786 36.9425 20.7395 36.4072 20.7395 35.7665C20.7395 35.2269 20.8386 34.7738 21.0367 34.4071C21.2348 34.0403 21.5046 33.7453 21.846 33.5219C22.1874 33.2985 22.5752 33.1298 23.0094 33.016C23.4478 32.9022 23.9072 32.8221 24.3878 32.7758C24.9526 32.7168 25.4079 32.662 25.7535 32.6114C26.0992 32.5566 26.35 32.4765 26.5059 32.3711C26.6619 32.2657 26.7399 32.1098 26.7399 31.9032V31.8653C26.7399 31.4648 26.6134 31.155 26.3605 30.9358C26.1118 30.7166 25.7577 30.607 25.2983 30.607C24.8135 30.607 24.4278 30.7145 24.1412 30.9295C23.8546 31.1403 23.6649 31.4058 23.5721 31.7262L21.0809 31.5238C21.2074 30.9337 21.4561 30.4237 21.827 29.9937C22.198 29.5595 22.6764 29.2265 23.2623 28.9947C23.8525 28.7587 24.5353 28.6406 25.3109 28.6406C25.8505 28.6406 26.3668 28.7039 26.86 28.8303C27.3574 28.9568 27.7979 29.1528 28.1815 29.4183C28.5693 29.6839 28.8749 30.0253 29.0983 30.4426C29.3217 30.8557 29.4334 31.351 29.4334 31.9285V38.479H26.879V37.1322H26.8031C26.6472 37.4357 26.4385 37.7034 26.1772 37.9352C25.9158 38.1628 25.6018 38.342 25.235 38.4727C24.8683 38.5991 24.4447 38.6623 23.9642 38.6623ZM24.7355 36.8034C25.1318 36.8034 25.4816 36.7254 25.7851 36.5695C26.0886 36.4093 26.3268 36.1943 26.4996 35.9245C26.6724 35.6548 26.7589 35.3492 26.7589 35.0077V33.9771C26.6746 34.0319 26.5586 34.0825 26.4111 34.1289C26.2678 34.171 26.1055 34.2111 25.9242 34.249C25.743 34.2827 25.5617 34.3143 25.3805 34.3438C25.1992 34.3691 25.0348 34.3923 24.8873 34.4134C24.5711 34.4598 24.2951 34.5335 24.059 34.6347C23.8229 34.7359 23.6396 34.8728 23.5089 35.0457C23.3782 35.2143 23.3129 35.425 23.3129 35.678C23.3129 36.0447 23.4457 36.325 23.7112 36.5189C23.981 36.7086 24.3225 36.8034 24.7355 36.8034Z" fill="#1D3D94"/>
<path d="M31.5231 38.479V28.7671H34.0902V30.4806H34.204C34.4063 29.9115 34.7436 29.4626 35.2157 29.1338C35.6878 28.805 36.2526 28.6406 36.9102 28.6406C37.5762 28.6406 38.1431 28.8071 38.611 29.1401C39.0789 29.4689 39.3909 29.9157 39.5468 30.4806H39.648C39.8461 29.9242 40.2044 29.4795 40.7229 29.1465C41.2456 28.8092 41.8631 28.6406 42.5755 28.6406C43.4817 28.6406 44.2173 28.9294 44.7821 29.5069C45.3512 30.0801 45.6357 30.8937 45.6357 31.9475V38.479H42.9485V32.4786C42.9485 31.939 42.8052 31.5344 42.5186 31.2646C42.2319 30.9948 41.8736 30.8599 41.4437 30.8599C40.9547 30.8599 40.5732 31.0159 40.2992 31.3278C40.0252 31.6355 39.8883 32.0423 39.8883 32.5481V38.479H37.2769V32.4217C37.2769 31.9454 37.1399 31.566 36.8659 31.2836C36.5962 31.0012 36.24 30.8599 35.7974 30.8599C35.4981 30.8599 35.2283 30.9358 34.988 31.0876C34.752 31.2351 34.5644 31.4438 34.4253 31.7135C34.2862 31.9791 34.2167 32.291 34.2167 32.6493V38.479H31.5231Z" fill="#1D3D94"/>
<path d="M42.5581 45.7184C44.3635 45.7184 46.1003 46.0175 47.7685 46.6155C49.4481 47.2135 50.945 48.1669 52.259 49.4758C53.5844 50.7846 54.6299 52.5223 55.3955 54.6887C56.1724 56.8438 56.5666 59.4897 56.5781 62.6265C56.5781 65.5714 56.241 68.2004 55.5668 70.5135C54.9041 72.8153 53.95 74.773 52.7046 76.3865C51.4591 78 49.9566 79.2299 48.197 80.0761C46.4373 80.9111 44.472 81.3286 42.301 81.3286C39.9587 81.3286 37.8905 80.8829 36.0966 79.9915C34.3027 79.0888 32.8573 77.8646 31.7604 76.3188C30.6749 74.7617 30.0179 73.0128 29.7894 71.072H37.1078C37.3935 72.3358 37.9934 73.3174 38.9075 74.017C39.8216 74.7052 40.9528 75.0494 42.301 75.0494C44.5863 75.0494 46.3231 74.0677 47.5114 72.1045C48.6997 70.1299 49.2996 67.4275 49.311 63.9974H49.0711C48.5455 65.0129 47.837 65.8874 46.9458 66.6208C46.0545 67.3429 45.0319 67.9014 43.8779 68.2963C42.7352 68.6912 41.5184 68.8887 40.2272 68.8887C38.1591 68.8887 36.3137 68.4092 34.6912 67.4501C33.0687 66.491 31.789 65.1709 30.852 63.4896C29.9151 61.8084 29.4466 59.8903 29.4466 57.7352C29.4352 55.4108 29.9779 53.3403 31.0748 51.5237C32.1717 49.7071 33.7028 48.2854 35.6681 47.2586C37.6449 46.2206 39.9415 45.7072 42.5581 45.7184ZM42.6096 51.4729C41.4555 51.4729 40.4271 51.7437 39.5245 52.2853C38.6332 52.8269 37.9248 53.5547 37.3992 54.4686C36.885 55.3826 36.6337 56.4037 36.6451 57.5321C36.6451 58.6717 36.8965 59.6985 37.3992 60.6124C37.9134 61.5151 38.6104 62.2372 39.4902 62.7788C40.3814 63.3091 41.3984 63.5743 42.541 63.5743C43.398 63.5743 44.1921 63.4163 44.9234 63.1004C45.6546 62.7844 46.2888 62.35 46.8258 61.7971C47.3743 61.233 47.8028 60.5842 48.1113 59.8508C48.4198 59.1174 48.574 58.3388 48.574 57.5151C48.5626 56.4207 48.2998 55.4164 47.7856 54.5025C47.2714 53.5885 46.563 52.8551 45.6603 52.3022C44.7577 51.7494 43.7407 51.4729 42.6096 51.4729Z" fill="#1D3D94"/>
<path d="M0.845947 84.9705V71.6167H3.50154V73.248H3.62168C3.73971 72.9866 3.91042 72.7211 4.13383 72.4513C4.36145 72.1773 4.65652 71.9497 5.01903 71.7684C5.38575 71.583 5.841 71.4902 6.38476 71.4902C7.09292 71.4902 7.74628 71.6757 8.34485 72.0466C8.94341 72.4134 9.42184 72.9677 9.78013 73.7096C10.1384 74.4472 10.3176 75.3725 10.3176 76.4853C10.3176 77.5686 10.1426 78.4833 9.79278 79.2294C9.44713 79.9713 8.97503 80.534 8.37646 80.9176C7.78211 81.297 7.11611 81.4867 6.37844 81.4867C5.85575 81.4867 5.41105 81.4002 5.04432 81.2274C4.68181 81.0546 4.38464 80.8375 4.1528 80.5762C3.92096 80.3106 3.74392 80.0429 3.62168 79.7732H3.53948V84.9705H0.845947ZM3.48258 76.4726C3.48258 77.0501 3.56267 77.5538 3.72284 77.9838C3.88302 78.4138 4.11486 78.7489 4.41836 78.9891C4.72185 79.2252 5.09069 79.3432 5.52486 79.3432C5.96324 79.3432 6.33418 79.2231 6.63768 78.9828C6.94117 78.7383 7.17091 78.4011 7.32687 77.9712C7.48705 77.537 7.56714 77.0375 7.56714 76.4726C7.56714 75.912 7.48916 75.4188 7.33319 74.9931C7.17723 74.5674 6.9475 74.2344 6.644 73.9941C6.3405 73.7538 5.96746 73.6337 5.52486 73.6337C5.08647 73.6337 4.71553 73.7496 4.41203 73.9814C4.11275 74.2133 3.88302 74.5421 3.72284 74.9678C3.56267 75.3935 3.48258 75.8952 3.48258 76.4726Z" fill="#1D3D94"/>
<path d="M12.1133 81.3286V71.6167H14.6803V73.3302H14.7942C14.9965 72.7611 15.3337 72.3122 15.8058 71.9834C16.2779 71.6546 16.8428 71.4902 17.5003 71.4902C18.1663 71.4902 18.7333 71.6567 19.2012 71.9897C19.6691 72.3185 19.981 72.7653 20.137 73.3302H20.2381C20.4362 72.7738 20.7945 72.3291 21.313 71.9961C21.8357 71.6588 22.4532 71.4902 23.1656 71.4902C24.0719 71.4902 24.8074 71.779 25.3723 72.3565C25.9413 72.9297 26.2259 73.7433 26.2259 74.7971V81.3286H23.5387V75.3282C23.5387 74.7887 23.3953 74.384 23.1087 74.1142C22.8221 73.8444 22.4638 73.7096 22.0338 73.7096C21.5449 73.7096 21.1634 73.8655 20.8894 74.1774C20.6154 74.4852 20.4784 74.8919 20.4784 75.3978V81.3286H17.8671V75.2713C17.8671 74.795 17.7301 74.4156 17.4561 74.1332C17.1863 73.8508 16.8301 73.7096 16.3875 73.7096C16.0882 73.7096 15.8185 73.7854 15.5782 73.9372C15.3421 74.0847 15.1546 74.2934 15.0155 74.5631C14.8764 74.8287 14.8068 75.1406 14.8068 75.4989V81.3286H12.1133Z" fill="#1D3D94"/>
</svg>
