<svg xmlns="http://www.w3.org/2000/svg" width="20" height="20" viewBox="0 0 20 20"><path d="M0,10A10,10,0,1,1,10,20,10,10,0,0,1,0,10Zm1.163,0A8.836,8.836,0,1,0,10,1.164,8.836,8.836,0,0,0,1.163,10Zm11.674,5.8c1.458-3.172-.664-5.08-2.213-6.475C8.908,7.785,8.052,6.9,8.874,5.1a3.069,3.069,0,0,1,4.068-1.5,7.1,7.1,0,0,1-.688,13.17,5,5,0,0,0,.583-.968Zm-5.78.6A7.1,7.1,0,0,1,7.745,3.23a5.032,5.032,0,0,0-.583.967C5.7,7.37,7.826,9.278,9.375,10.672c1.715,1.543,2.573,2.432,1.75,4.225A3.067,3.067,0,0,1,7.06,16.4Z" fill="#0fb4f2"/></svg>