<svg width="100" height="69" viewBox="0 0 100 69" fill="none" xmlns="http://www.w3.org/2000/svg">
<path d="M1.51972 38.0978C2.1191 38.2709 2.87481 38.2892 3.7503 38.3114C5.84512 38.3655 7.49689 38.5012 8.01433 39.6802C8.07958 40.8492 8.48323 45 10.9665 45C11.358 45 11.7662 44.8871 12.1881 44.6538L12.4088 44.528C17.3519 41.7093 17.4461 41.6553 17.4308 40.8951C17.4194 40.3048 16.927 40.0509 16.7176 39.9411C16.4664 39.8114 16.1834 39.665 16.6204 38.5501C16.8465 38.4731 17.3116 38.3885 17.6349 38.3313C18.9034 38.101 20.3427 37.8417 20.5552 36.6528C20.7623 35.4921 19.5848 34.2949 16.3063 32.3587C15.6386 32.0254 14.7031 32.197 13.8784 32.4227C13.4603 32.5371 12.958 32.6431 12.7555 32.6332C12.7471 32.5173 12.7608 32.3221 12.7706 32.1962C12.8055 31.744 12.8526 31.137 12.4558 30.6543C12.257 30.3333 11.8716 30 11.1318 30C10.9611 30 10.7805 30.0183 10.606 30.0374C10.5005 30.0488 10.3989 30.0625 10.3078 30.0625C9.94817 30.0625 9.62875 30.2944 9.51265 30.6375C9.43754 30.8663 9.36015 31.1301 9.27821 31.4146C8.87988 32.7956 8.33435 34.6861 6.9004 35.0086C6.34501 35.1688 5.32376 35.3655 4.33515 35.5569C1.20759 36.1624 0.556706 36.2883 0.578654 37.1904C0.588518 37.5465 0.778192 37.9987 1.51949 38.0979L1.51972 38.0978Z" fill="#1D3D94"/>
<path d="M22.8939 47.0768C21.8186 46.5198 21.315 46.1361 20.4333 45.4664C19.9698 45.1141 19.4141 44.6926 18.6399 44.1406C18.447 44.0037 18.2035 43.9631 17.9822 44.0351C16.458 44.5115 15.0781 44.6534 13.8585 44.7775C11.3096 45.0357 9.07713 45.2639 7.77781 48.5224C7.41984 48.066 7.00496 47.6624 6.44996 47.6624C6.33063 47.6624 6.11488 47.7066 6.00804 47.7615C4.81756 48.3762 5.08258 49.9509 5.27543 51.1006C5.31984 51.3666 5.3795 51.7253 5.39962 51.9849C4.93619 51.8166 4.30071 51.3181 3.81439 50.9358C3.05265 50.3368 2.44978 49.8632 1.82545 49.8632C1.30513 49.8632 0.887502 50.1934 0.731391 50.6827C0.131297 52.1204 1.42306 53.0453 2.36587 53.7201C2.96111 54.1466 3.62988 54.6244 3.79361 55.1786C3.67151 55.2962 3.40165 55.471 3.2289 55.5829C2.64267 55.9623 1.55071 56.6698 2.07242 57.7395C2.71206 59.275 4.25903 59.9326 5.5017 60.4589C5.83955 60.6023 6.16563 60.7406 6.37722 60.8412C6.84065 61.1593 7.52954 61.1229 8.04014 61.0045C7.90694 61.5601 7.413 62.1656 6.89684 62.7996C5.76118 64.1931 4.20851 66.103 6.25998 68.5614C6.54164 68.8495 6.89199 69.0021 7.27424 69C8.82548 69 10.1693 66.4062 10.4488 65.6624C10.7791 64.3052 10.6722 62.8973 10.5668 61.538C10.5252 60.9939 10.4828 60.4561 10.4752 59.8521C11.0233 59.5376 11.6934 59.2637 12.3968 58.9742C13.0365 58.7117 13.6879 58.4443 14.297 58.1312C14.7528 57.8965 14.9505 57.4373 15.0802 57.132C15.0955 57.0956 15.1108 57.0578 15.1246 57.0236C15.1586 57.0222 15.1968 57.0208 15.2412 57.0222L15.826 57.0329C16.9964 57.0329 18.6579 56.7448 19.616 54.1731C19.7326 53.6902 19.6819 53.2074 19.6112 52.7845C19.7735 52.8865 19.949 52.9528 20.1516 52.9528C20.3535 52.9528 20.6123 52.8444 20.7559 52.6982C21.5287 51.9052 21.4905 50.6799 21.46 49.6958C21.4475 49.3071 21.4281 48.6574 21.5072 48.549C21.6924 48.549 21.8652 48.6845 21.9921 48.8229C22.2752 49.4754 22.5062 49.9854 23.0674 49.9854C23.3658 49.9854 23.6426 49.8028 23.7681 49.5247C23.8049 49.4398 23.8264 49.3535 23.8326 49.2636C23.9152 49.3 23.9991 49.3392 24.0852 49.3756C24.4355 49.5831 24.5902 49.6616 24.8101 49.6616C25.012 49.6616 25.2097 49.5767 25.3533 49.4305C25.497 49.2829 25.5781 49.0811 25.5781 48.8735C25.5809 48.0463 23.5434 47.1826 22.894 47.077L22.8939 47.0768Z" fill="#1D3D94"/>
<path d="M99.4202 48.1145C99.1005 47.6222 98.5021 47.5621 97.8679 47.5006C97.5625 47.4691 96.9276 47.4062 96.7914 47.2702C95.9822 46.4639 95.993 45.8986 96.0102 45.0422C96.0195 44.5135 96.0324 43.9153 95.8267 43.1977C95.6196 42.5824 94.771 41.9778 92.7363 40.6398C92.0928 40.2156 91.3689 39.7405 91.083 39.4943C90.3383 38.175 90.4473 38.0297 90.6594 37.7521C90.9848 37.3228 91.4778 36.6746 91.4778 35.1485C91.4778 32.6851 90.0459 30.2409 88.6612 27.8755C87.574 26.0168 86.4482 24.0948 86.1621 22.3949C86.0453 21.1084 86.9713 19.9394 87.8664 18.8082C88.4763 18.0397 89.0504 17.3121 89.3492 16.5137C89.3808 16.4349 89.3951 16.3512 89.4001 16.2675L89.6294 10.4727C89.6294 9.94757 89.4904 9.43599 89.3557 8.94231C89.1915 8.33629 89.0346 7.76319 89.3227 7.35321C90.149 5.616 91.1961 4.87261 91.8863 4.38173C92.4267 3.99822 92.9356 3.63691 92.9155 2.96792C92.8904 2.13797 92.1264 1.62208 89.7191 0.119528C89.5055 -0.014268 89.2389 -0.0364474 89.006 0.0565654C88.7723 0.151011 88.5953 0.351351 88.5337 0.596041C88.3696 1.25573 88.0693 2.03201 86.5513 2.89695C85.5429 3.56737 76.4825 4.13403 66.7621 4.13403C63.3291 4.13403 60.6508 4.05675 59.5364 3.9244C59.4683 3.90222 59.2977 3.7584 59.1838 3.66253C58.8326 3.36774 58.3539 2.96493 57.6615 2.96493C57.5196 2.96493 57.3742 2.9821 57.2588 3.01215C56.818 3.10516 55.6448 3.3513 55.4807 4.2764C55.3875 4.79584 55.6448 5.21869 56.0404 5.58645C55.9394 5.57357 55.8333 5.56141 55.7258 5.54853C55.5459 5.51204 55.2262 4.9239 55.0542 4.60981C54.6594 3.8836 54.1691 2.98137 53.1766 2.98137C53.1121 2.98137 52.9014 3.00355 52.8383 3.01929C52.5 3.10443 52.2327 3.30977 52.0829 3.59668C51.792 4.15548 52.0263 4.76293 52.2729 5.40686C52.3804 5.68589 52.6033 6.2683 52.556 6.43071C51.9346 7.66922 50.6862 8.91772 49.4434 9.5359C47.7849 10.363 46.0778 10.7844 44.3693 10.7844C43.7572 10.7844 43.1445 10.7293 42.594 10.6299C42.4235 10.5869 42.0802 10.1877 41.8745 9.94946C41.4416 9.4429 40.9922 8.92059 40.3222 8.92059C40.0885 8.92059 39.8577 8.99142 39.685 9.10661C38.4344 9.85429 39.2457 11.354 39.6821 12.1603C39.7517 12.2898 39.8384 12.4494 39.9115 12.5961C39.4499 12.702 38.8601 12.8028 38.2043 12.918C34.9211 13.4847 30.4261 14.2624 29.1977 17.3305C28.7821 18.3593 29.5532 19.218 30.1158 19.846C30.2771 20.0256 30.5315 20.3082 30.6203 20.4707C30.1903 21.0438 28.2394 21.408 26.8091 21.6763C24.4555 22.1163 22.2331 22.5334 21.5659 24.0367C20.4865 26.9624 20.3045 28.6195 20.9574 29.5804C21.558 30.464 22.6043 30.4912 23.5275 30.5126C24.8096 30.5455 25.4051 30.6486 25.717 31.4785C25.9413 32.1489 25.3759 33.1306 24.8269 34.0793C24.0901 35.3543 23.2559 36.8017 23.8737 38.184C24.5373 40.0085 26.3856 41.7299 27.7337 42.9857C28.2476 43.4636 28.8862 44.0589 29.041 44.3472C29.4645 44.9797 29.4222 45.673 29.3714 46.4758C29.2911 47.7837 29.1893 49.4106 31.485 50.6399C32.193 50.9239 33.0782 50.7579 33.8336 50.5533C34.2084 50.4524 34.5639 50.3544 34.8577 50.3544C34.9824 50.3544 35.0885 50.373 35.3193 50.451C35.5436 50.4953 35.9041 50.9146 36.1678 51.2194C36.6609 51.7904 37.217 52.4379 38.0469 52.4379C38.3329 52.4379 38.6145 52.3556 38.8654 52.2061C39.6193 51.7782 39.9784 50.7214 40.4335 49.3842C40.857 48.1421 41.4354 46.4415 42.1628 46.4415C42.3872 46.4415 43.0257 46.5932 44.1653 47.8982C44.0878 47.9962 43.9775 48.1143 43.8951 48.203C43.4966 48.6323 43.0006 49.1675 43.0006 49.9087C43.0006 50.9283 43.2472 51.9128 43.4858 52.8659C43.7102 53.7653 43.9237 54.616 43.9237 55.4431C43.9237 57.4458 43.5854 57.8306 43.2579 58.2048C42.6824 58.8631 42.294 59.502 42.5434 61.7551C42.5735 62.0184 42.7347 62.2488 42.972 62.3718L43.4335 62.6051C43.6026 62.6902 43.7983 62.711 43.9839 62.6666C45.3671 62.3182 48.5456 59.6257 52.554 56.1451C53.7473 55.1097 54.7658 54.2233 55.3169 53.7954C55.6301 53.7954 56.316 54.3714 56.6844 54.6826C57.2169 55.1291 57.5996 55.4511 58.069 55.4511C58.3091 55.4511 58.6409 55.2929 58.7914 55.1055C59.0931 54.7248 59.0631 54.2204 58.8961 53.4849C58.8738 53.2781 58.7979 53.1207 58.7176 53.0005C59.5425 53.3983 60.4892 54.2412 61.2926 54.9538C62.1763 55.7394 62.9381 56.4198 63.6356 56.6516C64.3608 56.8849 65.0675 56.3547 65.5405 55.9197C65.5972 55.8675 65.6703 55.8016 65.7398 55.738C65.7555 55.7902 65.7713 55.8424 65.7828 55.8882C65.9204 56.3697 66.1289 57.0952 66.87 57.3435C67.7013 57.6147 68.6416 57.3786 69.4479 57.1131C69.9145 56.9586 70.3682 56.8291 70.7251 56.8276C70.7122 56.8956 70.6986 56.9636 70.6885 57.0201C70.5839 57.5395 70.4391 58.2529 70.8526 58.6471C71.8818 60.1904 79.1367 65 81.3199 65L81.4417 64.9921C81.8574 64.9921 82.0172 64.9921 86.4112 60.1526C86.9172 60.2169 87.9399 60.481 88.8565 60.7156C90.5558 61.1514 92.3153 61.6043 93.3996 61.6043C94.5599 61.6043 94.8509 61.0176 94.881 60.8058C95.1985 60.0137 94.9204 58.9012 94.6266 57.7257C94.4797 57.1404 94.2346 56.1616 94.2489 55.9964C94.3156 55.9298 94.5979 55.8275 94.7656 55.766C95.2981 55.5721 96.027 55.3052 96.2406 54.6405C96.614 53.9022 96.0478 53.3369 95.8342 53.1237C95.7647 53.0543 95.6479 52.9391 95.6321 52.9026C95.6321 52.781 95.602 52.6594 95.5483 52.5492C95.4486 52.3488 95.4329 52.0126 95.4995 51.7693C96.4735 50.9994 96.9902 50.9801 97.4662 50.9801C98.4717 50.9293 99.0135 50.5143 99.5194 49.001C99.6233 48.6905 99.5889 48.375 99.4198 48.1145L99.4202 48.1145Z" fill="#1D3D94"/>
</svg>
