<svg xmlns="http://www.w3.org/2000/svg" width="40" height="29.76" viewBox="0 0 40 29.76"><g transform="translate(0 -65.534)"><g transform="translate(23.913 76.164)"><path d="M317.392,202.035v1.1a6.956,6.956,0,1,0,0,10.849v1.1H320V202.035Zm-4.348,10.87a4.348,4.348,0,1,1,4.348-4.348A4.353,4.353,0,0,1,313.044,212.9Z" transform="translate(-306.088 -201.6)" fill="#fff"/></g><g transform="translate(0 92.686)"><rect width="40" height="2.609" fill="#fff"/></g><g transform="translate(2.436 65.534)"><path d="M41.788,65.534,31.18,89.642h2.85l3.635-8.261H45.91l3.635,8.261H52.4ZM38.813,78.773l2.975-6.761,2.975,6.761Z" transform="translate(-31.18 -65.534)" fill="#fff"/></g></g></svg>