<svg xmlns="http://www.w3.org/2000/svg" width="40" height="40" viewBox="0 0 40 40"><g transform="translate(-0.135)"><g transform="translate(0.135)"><g transform="translate(0)"><path d="M39.047,22.078l-1.334-1.895V0l-1.4.28A15.539,15.539,0,0,0,24.874,9.459l-.19,0h-9.1l-.19,0A15.539,15.539,0,0,0,3.956.28L2.554,0V20.188L1.224,22.079A5.855,5.855,0,0,0,3.151,30.6L20.133,40l16.988-9.4a5.855,5.855,0,0,0,1.925-8.52ZM34.475,3.241l-3.583,8.238a10.594,10.594,0,0,0-3.6-1.691A13.079,13.079,0,0,1,34.475,3.241Zm.894,3.82v9.794l-2.1-2.978,0-.007q-.262-.367-.553-.706ZM15.583,11.8h9.1a8.221,8.221,0,0,1,6.673,3.431l.884,1.255H29.509A10.56,10.56,0,0,0,20.134,22.2a10.56,10.56,0,0,0-9.376-5.715H8.027l.883-1.255A8.221,8.221,0,0,1,15.583,11.8ZM12.971,9.787a10.6,10.6,0,0,0-3.6,1.691L5.792,3.241A13.079,13.079,0,0,1,12.971,9.787ZM4.9,7.061l2.655,6.1q-.29.34-.553.706L4.9,16.857ZM15.725,34.882,4.287,28.551a3.513,3.513,0,0,1-1.154-5.114l3.244-4.61h4.38a8.211,8.211,0,0,1,8.2,8.2V33A5.873,5.873,0,0,0,15.725,34.882Zm4.409,2.44-2.275-1.259a3.508,3.508,0,0,1,4.55,0Zm17.572-11.07a3.517,3.517,0,0,1-1.721,2.3L24.542,34.882A5.874,5.874,0,0,0,21.305,33V27.026a8.211,8.211,0,0,1,8.2-8.2h4.382l3.241,4.6,0,.007A3.515,3.515,0,0,1,37.706,26.252Z" transform="translate(-0.135)" fill="#fff"/></g></g><g transform="translate(8.414 21.169)"><path d="M106.047,270.968v2.343a3.519,3.519,0,0,1,3.516,3.514h2.344A5.865,5.865,0,0,0,106.047,270.968Z" transform="translate(-106.047 -270.968)" fill="#fff"/></g><g transform="translate(25.993 21.169)"><path d="M330.94,276.825h2.344a3.519,3.519,0,0,1,3.516-3.514v-2.343A5.865,5.865,0,0,0,330.94,276.825Z" transform="translate(-330.94 -270.968)" fill="#fff"/></g></g></svg>