<svg xmlns="http://www.w3.org/2000/svg" width="34.455" height="40" viewBox="0 0 34.455 40"><g transform="translate(-35.491)"><g transform="translate(35.491)"><path d="M68.665,3.977a1.28,1.28,0,0,0-1.28,1.28V11.24H38.051V2.56H68.665a1.28,1.28,0,1,0,0-2.56H36.771a1.28,1.28,0,0,0-1.28,1.28V38.721A1.28,1.28,0,0,0,36.771,40H68.665a1.281,1.281,0,0,0,1.281-1.279V5.257A1.28,1.28,0,0,0,68.665,3.977ZM49.294,37.441V26.9h16.4a1.28,1.28,0,1,0,0-2.56h-16.4V15.863a1.28,1.28,0,1,0-2.56,0V37.441H38.051V13.8H67.385V37.441H49.294Z" transform="translate(-35.491)" fill="#fff"/></g></g></svg>