<svg xmlns="http://www.w3.org/2000/svg" width="265.247" height="40.001" viewBox="0 0 265.247 40.001"><g transform="translate(-180 -24.999)"><g transform="translate(180 25)"><path d="M20.388.388a20,20,0,1,0,20,20,20,20,0,0,0-20-20Zm0,37.672A17.673,17.673,0,1,1,38.061,20.387,17.673,17.673,0,0,1,20.388,38.06Z" transform="translate(-0.388 -0.388)" fill="#6902cf"/><g transform="translate(5.847 6.46)"><path d="M15.818,34.645a6.138,6.138,0,0,0,8.132-3.01c1.649-3.587-.065-5.364-3.5-8.45-3.1-2.787-7.342-6.6-4.425-12.95A10.024,10.024,0,0,1,17.195,8.3a14.193,14.193,0,0,0-1.376,26.343Z" transform="translate(-7.551 -8.302)" fill="#6902cf"/><path d="M28.749,35.421A14.193,14.193,0,0,0,30.125,9.077a6.139,6.139,0,0,0-8.132,3.01c-1.649,3.587.065,5.364,3.5,8.451,3.1,2.787,7.342,6.6,4.426,12.949A10.014,10.014,0,0,1,28.749,35.421Z" transform="translate(-10.087 -8.341)" fill="#6902cf"/></g></g><path d="M0,20A20,20,0,1,1,20,40,20,20,0,0,1,0,20Zm2.327,0A17.672,17.672,0,1,0,20,2.327,17.672,17.672,0,0,0,2.327,20ZM25.675,31.6c2.916-6.345-1.328-10.161-4.426-12.949-3.432-3.086-5.145-4.864-3.5-8.45A6.138,6.138,0,0,1,25.884,7.2a14.193,14.193,0,0,1-1.375,26.34A9.99,9.99,0,0,0,25.675,31.6Zm-11.56,1.2A14.193,14.193,0,0,1,15.491,6.46a10.064,10.064,0,0,0-1.166,1.934c-2.917,6.345,1.327,10.162,4.426,12.95,3.431,3.086,5.145,4.864,3.5,8.45a6.134,6.134,0,0,1-8.132,3.01Z" transform="translate(180 24.999)" fill="#1d3d94"/><path d="M12,.39a10.832,10.832,0,0,0,7.718-3.172A10.832,10.832,0,0,0,22.89-10.5a10.813,10.813,0,0,0-3.167-7.723A10.813,10.813,0,0,0,12-21.39a10.788,10.788,0,0,0-7.711,3.17A10.788,10.788,0,0,0,1.14-10.5,10.807,10.807,0,0,0,4.294-2.786,10.807,10.807,0,0,0,12,.39Zm0-2.73A8.006,8.006,0,0,1,6.223-4.705,8.006,8.006,0,0,1,3.9-10.5a8.013,8.013,0,0,1,2.314-5.812A8.013,8.013,0,0,1,12-18.69a8.013,8.013,0,0,1,5.786,2.378A8.013,8.013,0,0,1,20.1-10.5a8.006,8.006,0,0,1-2.323,5.795A8.006,8.006,0,0,1,12-2.34ZM34.26-15.39a6.489,6.489,0,0,0-5.67,2.97V-15H25.98V6h2.61V-2.58A6.489,6.489,0,0,0,34.26.39,7.706,7.706,0,0,0,39.7-1.973,7.706,7.706,0,0,0,41.85-7.5a7.706,7.706,0,0,0-2.15-5.527,7.706,7.706,0,0,0-5.44-2.363ZM33.93-2.13a5.247,5.247,0,0,1-3.815-1.546A5.247,5.247,0,0,1,28.59-7.5a5.247,5.247,0,0,1,1.525-3.824A5.247,5.247,0,0,1,33.93-12.87a5.24,5.24,0,0,1,3.8,1.555A5.24,5.24,0,0,1,39.24-7.5a5.24,5.24,0,0,1-1.512,3.815,5.24,5.24,0,0,1-3.8,1.555ZM46.8-6.3H59.37a7.683,7.683,0,0,0,.09-1.17c0-4.2-2.94-7.92-7.47-7.92a7.619,7.619,0,0,0-5.644,2.238A7.619,7.619,0,0,0,44.13-7.5a7.649,7.649,0,0,0,2.287,5.711A7.649,7.649,0,0,0,52.17.39,7.571,7.571,0,0,0,58.77-3L56.55-4.26a4.9,4.9,0,0,1-4.32,2.19A5.134,5.134,0,0,1,46.8-6.3Zm5.19-6.63a4.751,4.751,0,0,1,4.83,4.35H46.8a4.979,4.979,0,0,1,5.19-4.35Zm17.94-2.46a5.333,5.333,0,0,0-4.86,2.55V-15H62.46V0h2.61V-7.95c0-3.54,1.95-4.95,4.35-4.95,2.31,0,3.72,1.38,3.72,3.84V0h2.61V-9.21C75.75-13.05,73.44-15.39,69.93-15.39Zm11.7,4.44c0-1.35,1.32-2.01,2.67-2.01a3.31,3.31,0,0,1,3.21,1.92l2.19-1.23a5.766,5.766,0,0,0-5.4-3.12c-3.03,0-5.31,1.83-5.31,4.47,0,5.43,8.4,3.6,8.4,6.81,0,1.47-1.38,2.04-2.97,2.04A3.649,3.649,0,0,1,80.7-4.41L78.45-3.12C79.32-1.05,81.42.39,84.42.39c3.21,0,5.61-1.71,5.61-4.5,0-5.52-8.4-3.63-8.4-6.84ZM99.75.39a7.6,7.6,0,0,0,6.75-3.9L104.28-4.8a5.031,5.031,0,0,1-4.53,2.61,5.2,5.2,0,0,1-3.769-1.533A5.2,5.2,0,0,1,94.47-7.5a5.208,5.208,0,0,1,1.5-3.794A5.208,5.208,0,0,1,99.75-12.84a4.8,4.8,0,0,1,4.44,2.64l2.19-1.26a7.213,7.213,0,0,0-6.63-3.93,7.732,7.732,0,0,0-5.627,2.263A7.732,7.732,0,0,0,91.86-7.5a7.732,7.732,0,0,0,2.263,5.627A7.732,7.732,0,0,0,99.75.39Zm16.17,0A7.849,7.849,0,0,0,121.531-1.9a7.849,7.849,0,0,0,2.309-5.6,7.849,7.849,0,0,0-2.309-5.6,7.849,7.849,0,0,0-5.611-2.288,7.824,7.824,0,0,0-5.6,2.291,7.824,7.824,0,0,0-2.291,5.6,7.824,7.824,0,0,0,2.291,5.6A7.824,7.824,0,0,0,115.92.39Zm0-2.55a5.226,5.226,0,0,1-3.771-1.551A5.226,5.226,0,0,1,110.64-7.5a5.226,5.226,0,0,1,1.509-3.789,5.226,5.226,0,0,1,3.771-1.551,5.233,5.233,0,0,1,3.789,1.543,5.233,5.233,0,0,1,1.521,3.8,5.233,5.233,0,0,1-1.521,3.8A5.233,5.233,0,0,1,115.92-2.16Zm13.62-10.32V-15h-2.61V0h2.61V-7.95c0-3.54,2.43-4.68,4.68-4.59v-2.73a4.762,4.762,0,0,0-4.68,2.79Zm8.55-5.25a1.741,1.741,0,0,0,1.74-1.74,1.767,1.767,0,0,0-1.74-1.77,1.773,1.773,0,0,0-1.77,1.77,1.748,1.748,0,0,0,.523,1.239,1.748,1.748,0,0,0,1.247.5ZM136.77,0h2.61V-15h-2.61Zm14.07-15.39a5.333,5.333,0,0,0-4.86,2.55V-15h-2.61V0h2.61V-7.95c0-3.54,1.95-4.95,4.35-4.95,2.31,0,3.72,1.38,3.72,3.84V0h2.61V-9.21C156.66-13.05,154.35-15.39,150.84-15.39Zm21.9.39v2.58a6.473,6.473,0,0,0-5.64-2.97,7.677,7.677,0,0,0-5.455,2.3,7.677,7.677,0,0,0-2.2,5.5,7.684,7.684,0,0,0,2.186,5.516A7.684,7.684,0,0,0,167.1.24a6.5,6.5,0,0,0,5.64-3V-.63c0,2.82-1.89,4.59-5.01,4.59-2.94,0-4.2-1.11-4.89-2.52l-2.28,1.29c1.23,2.37,3.75,3.66,7.11,3.66,3.9,0,7.65-2.34,7.65-7.02V-15ZM167.4-2.25a5.24,5.24,0,0,1-3.806-1.534A5.24,5.24,0,0,1,162.06-7.59a5.233,5.233,0,0,1,1.543-3.789,5.233,5.233,0,0,1,3.8-1.521,5.233,5.233,0,0,1,3.8,1.521A5.233,5.233,0,0,1,172.74-7.59a5.24,5.24,0,0,1-1.534,3.806A5.24,5.24,0,0,1,167.4-2.25ZM180.93.33a1.927,1.927,0,0,0,1.386-.564,1.927,1.927,0,0,0,.564-1.386,1.927,1.927,0,0,0-.564-1.386,1.927,1.927,0,0,0-1.386-.564,1.946,1.946,0,0,0-1.38.57,1.946,1.946,0,0,0-.57,1.38,1.946,1.946,0,0,0,.57,1.38,1.946,1.946,0,0,0,1.38.57Zm6.96-18.06a1.741,1.741,0,0,0,1.74-1.74,1.767,1.767,0,0,0-1.74-1.77,1.773,1.773,0,0,0-1.77,1.77,1.748,1.748,0,0,0,.523,1.239,1.748,1.748,0,0,0,1.247.5ZM186.57,0h2.61V-15h-2.61Zm13.65.39A7.849,7.849,0,0,0,205.831-1.9a7.849,7.849,0,0,0,2.309-5.6,7.849,7.849,0,0,0-2.309-5.6,7.849,7.849,0,0,0-5.611-2.288,7.824,7.824,0,0,0-5.6,2.291,7.824,7.824,0,0,0-2.291,5.6,7.824,7.824,0,0,0,2.291,5.6A7.824,7.824,0,0,0,200.22.39Zm0-2.55a5.226,5.226,0,0,1-3.771-1.551A5.226,5.226,0,0,1,194.94-7.5a5.226,5.226,0,0,1,1.509-3.789,5.226,5.226,0,0,1,3.771-1.551,5.233,5.233,0,0,1,3.789,1.543,5.233,5.233,0,0,1,1.521,3.8,5.233,5.233,0,0,1-1.521,3.8A5.233,5.233,0,0,1,200.22-2.16Z" transform="translate(237.107 55.111)"/></g></svg>