<?xml version="1.0" encoding="UTF-8" standalone="no"?>
<!-- Generator: Adobe Illustrator 15.1.0, SVG Export Plug-In . SVG Version: 6.00 Build 0)  -->

<svg
   version="1.1"
   id="Layer_1"
   x="0px"
   y="0px"
   width="336.61301"
   height="336.61301"
   viewBox="0 0 336.613 336.61299"
   enable-background="new 0 0 841.89 595.28"
   xml:space="preserve"
   sodipodi:docname="logo.svg"
   inkscape:version="1.1.2 (b8e25be833, 2022-02-05)"
   xmlns:inkscape="http://www.inkscape.org/namespaces/inkscape"
   xmlns:sodipodi="http://sodipodi.sourceforge.net/DTD/sodipodi-0.dtd"
   xmlns="http://www.w3.org/2000/svg"
   xmlns:svg="http://www.w3.org/2000/svg"><defs
   id="defs15">
	
	

		
		
	</defs><sodipodi:namedview
   id="namedview13"
   pagecolor="#ffffff"
   bordercolor="#666666"
   borderopacity="1.0"
   inkscape:pageshadow="2"
   inkscape:pageopacity="0.0"
   inkscape:pagecheckerboard="0"
   showgrid="false"
   inkscape:zoom="1.0818438"
   inkscape:cx="421.04045"
   inkscape:cy="297.64001"
   inkscape:window-width="1920"
   inkscape:window-height="991"
   inkscape:window-x="-9"
   inkscape:window-y="-9"
   inkscape:window-maximized="1"
   inkscape:current-layer="Layer_1"
   width="336.613px" />
<g
   id="g826"><path
     fill="#662d91"
     d="M 168.307,0 C 75.354,0 0,75.354 0,168.307 c 0,92.952 75.354,168.306 168.307,168.306 92.952,0 168.306,-75.354 168.306,-168.306 C 336.613,75.354 261.259,0 168.307,0 Z m -10e-4,317.028 c -82.137,0 -148.721,-66.586 -148.721,-148.722 0,-82.138 66.584,-148.722 148.721,-148.722 82.137,0 148.722,66.584 148.722,148.722 0,82.136 -66.585,148.722 -148.722,148.722 z"
     id="path2"
     style="fill:#dbe9ff;fill-opacity:1" /><path
     fill="#662d91"
     d="m 118.779,276.055 c 25.854,11.885 56.554,0.52 68.435,-25.329 13.878,-30.182 -0.546,-45.139 -29.421,-71.109 -26.079,-23.456 -61.787,-55.582 -37.242,-108.977 2.691,-5.854 5.971,-11.289 9.812,-16.276 -30.897,10.474 -56.436,33.172 -70.245,63.218 -27.517,59.859 -1.203,130.955 58.661,158.473 z"
     id="path4"
     style="fill:#dbe9ff;fill-opacity:1" /><path
     fill="#662d91"
     d="m 206.252,282.249 c 30.901,-10.476 56.437,-33.173 70.246,-63.219 27.518,-59.861 1.197,-130.956 -58.67,-158.476 -25.847,-11.883 -56.547,-0.516 -68.431,25.331 -13.875,30.184 0.546,45.143 29.421,71.115 26.076,23.456 61.784,55.572 37.248,108.972 -2.692,5.856 -5.971,11.289 -9.814,16.277 z"
     id="path6"
     style="fill:#dbe9ff;fill-opacity:1" /></g>
</svg>
