<svg xmlns="http://www.w3.org/2000/svg" width="40" height="40" viewBox="0 0 40 40"><path d="M38.828,7.031A1.172,1.172,0,0,0,40,5.859V1.172A1.172,1.172,0,0,0,38.828,0H34.141a1.172,1.172,0,0,0-1.172,1.172V2.344H23.516V1.172A1.172,1.172,0,0,0,22.344,0H17.656a1.172,1.172,0,0,0-1.172,1.172V2.344H7.031V1.172A1.172,1.172,0,0,0,5.859,0H1.172A1.172,1.172,0,0,0,0,1.172V5.859A1.172,1.172,0,0,0,1.172,7.031H2.344v9.453H1.172A1.172,1.172,0,0,0,0,17.656v4.688a1.172,1.172,0,0,0,1.172,1.172H2.344v9.453H1.172A1.172,1.172,0,0,0,0,34.141v4.688A1.172,1.172,0,0,0,1.172,40H5.859a1.172,1.172,0,0,0,1.172-1.172V37.656h9.453v1.172A1.172,1.172,0,0,0,17.656,40h4.688a1.172,1.172,0,0,0,1.172-1.172V37.656h9.453v1.172A1.172,1.172,0,0,0,34.141,40h4.688A1.172,1.172,0,0,0,40,38.828V34.141a1.172,1.172,0,0,0-1.172-1.172H37.656V23.516h1.172A1.172,1.172,0,0,0,40,22.344V17.656a1.172,1.172,0,0,0-1.172-1.172H37.656V7.031Zm-20-4.687h2.344V4.688H18.828Zm-16.484,0H4.688V4.688H2.344Zm0,16.484H4.688v2.344H2.344ZM4.688,37.656H2.344V35.313H4.688Zm16.484,0H18.828V35.313h2.344Zm11.8-3.516v1.172H23.516V34.141a1.172,1.172,0,0,0-1.172-1.172H17.656a1.172,1.172,0,0,0-1.172,1.172v1.172H7.031V34.141a1.172,1.172,0,0,0-1.172-1.172H4.688V23.516H5.859a1.172,1.172,0,0,0,1.172-1.172V17.656a1.172,1.172,0,0,0-1.172-1.172H4.688V7.031H5.859A1.172,1.172,0,0,0,7.031,5.859V4.688h9.453V5.859a1.172,1.172,0,0,0,1.172,1.172h4.688a1.172,1.172,0,0,0,1.172-1.172V4.688h9.453V5.859a1.172,1.172,0,0,0,1.172,1.172h1.172v9.453H34.141a1.172,1.172,0,0,0-1.172,1.172v4.688a1.172,1.172,0,0,0,1.172,1.172h1.172v9.453H34.141A1.172,1.172,0,0,0,32.969,34.141Zm4.688,3.516H35.313V35.313h2.344Zm0-16.484H35.313V18.828h2.344ZM35.313,4.688V2.344h2.344V4.688Z" fill="#fff"/><path d="M178.891,166H167.172A1.172,1.172,0,0,0,166,167.172v11.719a1.172,1.172,0,0,0,1.172,1.172h11.719a1.172,1.172,0,0,0,1.172-1.172V167.172A1.172,1.172,0,0,0,178.891,166Zm-1.172,11.719h-9.375v-9.375h9.375Z" transform="translate(-153.031 -153.031)" fill="#fff"/><circle cx="1.172" cy="1.172" r="1.172" transform="translate(18.828 18.828)" fill="#fff"/></svg>