<svg xmlns="http://www.w3.org/2000/svg" width="32" height="26.19" viewBox="0 0 32 26.19">
  <path id="twitter" d="M32,3.5c-2.013.093-1.969.085-2.2.1L31,.2s-3.721,1.369-4.665,1.614A7.466,7.466,0,0,0,17.538,1.1a6.09,6.09,0,0,0-2.927,6.262A16.243,16.243,0,0,1,4.088,1.442L3.205.382l-.66,1.211a7.321,7.321,0,0,0-.78,4.928,7.08,7.08,0,0,0,.686,1.924l-.757-.293L1.6,9.417A6.752,6.752,0,0,0,2.75,13.431a7.137,7.137,0,0,0,.892,1.1l-.391-.06.478,1.45a7.049,7.049,0,0,0,3.623,4.2c-1.69.717-3.055,1.175-5.3,1.913L0,22.706l1.9,1.037a19.9,19.9,0,0,0,5.8,2.111c5.61.88,11.927.163,16.179-3.667,3.582-3.226,4.757-7.814,4.513-12.59a2.983,2.983,0,0,1,.558-1.942C29.741,6.6,31.995,3.505,32,3.5ZM27.448,6.532a4.859,4.859,0,0,0-.929,3.161c.246,4.817-1.064,8.552-3.9,11.1C19.316,23.774,13.981,24.943,7.987,24a14.514,14.514,0,0,1-3.136-.932,49.723,49.723,0,0,0,5.68-2.334l3.275-1.55-3.616-.231A5.114,5.114,0,0,1,6.13,16.642a6.485,6.485,0,0,0,1.376-.229l3.448-.96L7.478,14.6a5.179,5.179,0,0,1-3.163-2.2,5.3,5.3,0,0,1-.686-1.513,8.681,8.681,0,0,0,1.411.225l3.219.318L5.708,9.442A5.368,5.368,0,0,1,3.674,3.786,18.654,18.654,0,0,0,16.819,9.444a11.1,11.1,0,0,0-.192-1.59A4.3,4.3,0,0,1,18.519,2.7a5.6,5.6,0,0,1,6.607.547,1.678,1.678,0,0,0,1.54.412,12.958,12.958,0,0,0,1.269-.386l-.809,2.309h1.032l-.709.949Zm0,0" transform="translate(0 0)" fill="#fff"/>
</svg>
